<?xml version="1.0" encoding="utf-8"?>
<!-- Generator: Adobe Illustrator 23.1.1, SVG Export Plug-In . SVG Version: 6.00 Build 0)  -->
<svg version="1.1" id="图层_1" xmlns="http://www.w3.org/2000/svg" xmlns:xlink="http://www.w3.org/1999/xlink" x="0px" y="0px"
	 viewBox="0 0 20 20" style="enable-background:new 0 0 20 20;" xml:space="preserve">
<style type="text/css">
	.st0{fill:#FFFFFF;}
</style>
<g id="商品管理V2">
	<g id="编辑-商品类目-积分" transform="translate(-379.000000, -304.000000)">
		<g id="编组-8备份" transform="translate(313.000000, 229.000000)">
			<g id="编组-9" transform="translate(0.000000, 10.000000)">
				<g id="Group-3" transform="translate(60.000000, 59.000000)">
					<g id="Group-4" transform="translate(6.000000, 6.000000)">
						<path id="形状-copy" class="st0" d="M10,0C4.5,0,0,4.5,0,10s4.5,10,10,10s10-4.5,10-10S15.5,0,10,0z M10,18
							c-4.4,0-8-3.6-8-8s3.6-8,8-8s8,3.6,8,8S14.4,18,10,18z"/>
						<path id="Shape" class="st0" d="M6,7C5.4,7,5,7.4,5,8s0.4,1,1,1c0.6,0,1-0.4,1-1C7,7.4,6.6,7,6,7z M4,14h12l-2.7-7L10,11.5
							L7.8,9.2L4,14z"/>
					</g>
				</g>
			</g>
		</g>
	</g>
</g>
</svg>
