<?xml version="1.0" encoding="utf-8"?>
<!-- Generator: Adobe Illustrator 24.2.0, SVG Export Plug-In . SVG Version: 6.00 Build 0)  -->
<svg version="1.1" id="图层_1" xmlns="http://www.w3.org/2000/svg" xmlns:xlink="http://www.w3.org/1999/xlink" x="0px" y="0px"
	 viewBox="0 0 240 240" style="enable-background:new 0 0 240 240;" xml:space="preserve">
<style type="text/css">
	.st0{fill:#BDBDBD;}
</style>
<g>
	<path class="st0" d="M120,20C64.77,20,20,64.77,20,120s44.77,100,100,100s100-44.77,100-100S175.23,20,120,20z M120,200
		c-44.18,0-80-35.82-80-80s35.82-80,80-80s80,35.82,80,80S164.18,200,120,200z"/>
	<path class="st0" d="M155.45,84.31c-3.91-3.91-11.03-3.11-15.91,1.77l-19.45,19.45l-19.54-19.54c-4.88-4.88-12-5.67-15.91-1.77l0,0
		c-3.91,3.91-3.11,11.03,1.77,15.91l19.54,19.54l-19.45,19.45c-4.88,4.88-5.67,12-1.77,15.91c3.91,3.91,11.03,3.11,15.91-1.77
		l19.45-19.45l19.35,19.35c4.88,4.88,12,5.67,15.91,1.77l0,0c3.91-3.91,3.11-11.03-1.77-15.91l-19.35-19.35l19.45-19.45
		C158.56,95.34,159.36,88.22,155.45,84.31z"/>
</g>
</svg>
